<svg xmlns="http://www.w3.org/2000/svg" xmlns:xlink="http://www.w3.org/1999/xlink" width="0.93em" height="1em" preserveAspectRatio="xMidYMid meet" viewBox="0 0 1536 1664" style="-ms-transform: rotate(360deg); -webkit-transform: rotate(360deg); transform: rotate(360deg);"><path fill="#8c8" d="M192 1280v128H80q-16 0-16-16v-16H16q-16 0-16-16v-32q0-16 16-16h48v-16q0-16 16-16h112zm0-256v128H80q-16 0-16-16v-16H16q-16 0-16-16v-32q0-16 16-16h48v-16q0-16 16-16h112zm0-256v128H80q-16 0-16-16v-16H16q-16 0-16-16v-32q0-16 16-16h48v-16q0-16 16-16h112zm0-256v128H80q-16 0-16-16v-16H16q-16 0-16-16v-32q0-16 16-16h48v-16q0-16 16-16h112zm0-256v128H80q-16 0-16-16v-16H16q-16 0-16-16v-32q0-16 16-16h48v-16q0-16 16-16h112zM1280 96v1472q0 40-28 68t-68 28H352q-40 0-68-28t-28-68V96q0-40 28-68t68-28h832q40 0 68 28t28 68zm256 1232v32q0 16-16 16h-48v16q0 16-16 16h-112v-128h112q16 0 16 16v16h48q16 0 16 16zm0-256v32q0 16-16 16h-48v16q0 16-16 16h-112v-128h112q16 0 16 16v16h48q16 0 16 16zm0-256v32q0 16-16 16h-48v16q0 16-16 16h-112V768h112q16 0 16 16v16h48q16 0 16 16zm0-256v32q0 16-16 16h-48v16q0 16-16 16h-112V512h112q16 0 16 16v16h48q16 0 16 16zm0-256v32q0 16-16 16h-48v16q0 16-16 16h-112V256h112q16 0 16 16v16h48q16 0 16 16z"/><rect x="0" y="0" width="1536" height="1664" fill="rgba(0, 0, 0, 0)" /></svg>