<svg xmlns="http://www.w3.org/2000/svg" xmlns:xlink="http://www.w3.org/1999/xlink" width="1.28em" height="1em" preserveAspectRatio="xMidYMid meet" viewBox="0 0 1792 1408" style="-ms-transform: rotate(360deg); -webkit-transform: rotate(360deg); transform: rotate(360deg);"><path fill="currentColor" d="M512 1120v192q0 40-28 68t-68 28H96q-40 0-68-28t-28-68v-192q0-40 28-68t68-28h320q40 0 68 28t28 68zm0-512v192q0 40-28 68t-68 28H96q-40 0-68-28T0 800V608q0-40 28-68t68-28h320q40 0 68 28t28 68zm1280 512v192q0 40-28 68t-68 28H736q-40 0-68-28t-28-68v-192q0-40 28-68t68-28h960q40 0 68 28t28 68zM512 96v192q0 40-28 68t-68 28H96q-40 0-68-28T0 288V96q0-40 28-68T96 0h320q40 0 68 28t28 68zm1280 512v192q0 40-28 68t-68 28H736q-40 0-68-28t-28-68V608q0-40 28-68t68-28h960q40 0 68 28t28 68zm0-512v192q0 40-28 68t-68 28H736q-40 0-68-28t-28-68V96q0-40 28-68t68-28h960q40 0 68 28t28 68z"/></svg>